<svg xmlns="http://www.w3.org/2000/svg" viewBox="0 0 1200 630" role="img" aria-label="Abstract illustration: delivery grid with dark stores going offline">
  <rect width="1200" height="630" fill="#eef2ee"/>
  <rect width="1200" height="630" fill="url(#g)" opacity="0.5"/>
  <defs>
    <linearGradient id="g" x1="0" y1="0" x2="1" y2="1">
      <stop offset="0" stop-color="#fdfdfb"/>
      <stop offset="1" stop-color="#dfe9e3"/>
    </linearGradient>
  </defs>
  <g>
    <rect x="150" y="120" width="90" height="90" fill="#0e5741"/>
    <rect x="270" y="120" width="90" height="90" fill="#0e5741"/>
    <rect x="390" y="120" width="90" height="90" fill="#23a06f"/>
    <rect x="510" y="120" width="90" height="90" fill="none" stroke="#7fc7a4" stroke-width="3" stroke-dasharray="7 7"/>
    <rect x="150" y="240" width="90" height="90" fill="#0e5741"/>
    <rect x="270" y="240" width="90" height="90" fill="#23a06f"/>
    <rect x="390" y="240" width="90" height="90" fill="none" stroke="#7fc7a4" stroke-width="3" stroke-dasharray="7 7"/>
    <rect x="510" y="240" width="90" height="90" fill="none" stroke="#7fc7a4" stroke-width="3" stroke-dasharray="7 7"/>
    <rect x="150" y="360" width="90" height="90" fill="#23a06f"/>
    <rect x="270" y="360" width="90" height="90" fill="none" stroke="#7fc7a4" stroke-width="3" stroke-dasharray="7 7"/>
    <rect x="390" y="360" width="90" height="90" fill="none" stroke="#7fc7a4" stroke-width="3" stroke-dasharray="7 7"/>
    <rect x="510" y="360" width="90" height="90" fill="none" stroke="#7fc7a4" stroke-width="3" stroke-dasharray="7 7"/>
  </g>
  <path d="M880 160c-66 0-120 54-120 120 0 90 120 190 120 190s120-100 120-190c0-66-54-120-120-120Z" fill="#0e5741"/>
  <circle cx="880" cy="285" r="46" fill="#fdfdfb"/>
  <path d="M862 285l14 14 24-28" stroke="#0e5741" stroke-width="7" fill="none" stroke-linecap="round" stroke-linejoin="round"/>
</svg>
