<svg xmlns="http://www.w3.org/2000/svg" viewBox="0 0 1200 630" role="img" aria-label="Abstract illustration: pricing sliders being adjusted">
  <rect width="1200" height="630" fill="#eef2ee"/>
  <rect width="1200" height="630" fill="url(#g)" opacity="0.5"/>
  <defs>
    <linearGradient id="g" x1="0" y1="0" x2="1" y2="1">
      <stop offset="0" stop-color="#fdfdfb"/>
      <stop offset="1" stop-color="#dfe9e3"/>
    </linearGradient>
  </defs>
  <rect x="170" y="120" width="860" height="390" rx="14" fill="#fdfdfb" stroke="#0e5741" stroke-width="3"/>
  <g stroke-linecap="round">
    <line x1="250" y1="220" x2="950" y2="220" stroke="#dfe9e3" stroke-width="10"/>
    <line x1="250" y1="220" x2="700" y2="220" stroke="#0e5741" stroke-width="10"/>
    <circle cx="700" cy="220" r="22" fill="#0e5741"/>
    <line x1="250" y1="315" x2="950" y2="315" stroke="#dfe9e3" stroke-width="10"/>
    <line x1="250" y1="315" x2="480" y2="315" stroke="#23a06f" stroke-width="10"/>
    <circle cx="480" cy="315" r="22" fill="#23a06f"/>
    <line x1="250" y1="410" x2="950" y2="410" stroke="#dfe9e3" stroke-width="10"/>
    <line x1="250" y1="410" x2="850" y2="410" stroke="#7fc7a4" stroke-width="10"/>
    <circle cx="850" cy="410" r="22" fill="#7fc7a4"/>
  </g>
  <path d="M920 150l10 22 22 10-22 10-10 22-10-22-22-10 22-10 10-22Z" fill="#0e5741"/>
</svg>
