<svg xmlns="http://www.w3.org/2000/svg" viewBox="0 0 1200 630" role="img" aria-label="Abstract illustration: a circle with a missing wedge, pieces falling away">
  <rect width="1200" height="630" fill="#0e5741"/>
  <rect width="1200" height="630" fill="url(#g)" opacity="0.35"/>
  <defs>
    <linearGradient id="g" x1="0" y1="0" x2="1" y2="1">
      <stop offset="0" stop-color="#23a06f"/>
      <stop offset="1" stop-color="#0a4433"/>
    </linearGradient>
  </defs>
  <path d="M600 315 m-190 0 a190 190 0 1 1 133 181 l57-181 Z" fill="#fdfdfb"/>
  <path d="M790 430l60 46M840 380l74 30M760 480l40 66" stroke="#7fc7a4" stroke-width="5" stroke-linecap="round"/>
  <g fill="#7fc7a4">
    <path d="M880 490l26 8-18 20-8-28Z"/>
    <path d="M930 420l24 12-22 14-2-26Z"/>
    <path d="M812 560l22 14-24 10 2-24Z"/>
  </g>
  <circle cx="600" cy="315" r="60" fill="#0e5741"/>
  <path d="M600 285l8 18 18 4-14 13 4 19-16-10-16 10 4-19-14-13 18-4 8-18Z" fill="#fdfdfb"/>
  <rect x="150" y="130" width="4" height="370" fill="#fdfdfb" opacity="0.5"/>
  <rect x="1046" y="130" width="4" height="370" fill="#fdfdfb" opacity="0.5"/>
</svg>
