<svg xmlns="http://www.w3.org/2000/svg" viewBox="0 0 1200 630" role="img" aria-label="Abstract illustration: an open network of nodes, few of them solid">
  <rect width="1200" height="630" fill="#eef2ee"/>
  <rect width="1200" height="630" fill="url(#g)" opacity="0.5"/>
  <defs>
    <linearGradient id="g" x1="0" y1="0" x2="1" y2="1">
      <stop offset="0" stop-color="#fdfdfb"/>
      <stop offset="1" stop-color="#dfe9e3"/>
    </linearGradient>
  </defs>
  <g stroke="#9dbfae" stroke-width="3">
    <line x1="240" y1="180" x2="520" y2="120"/>
    <line x1="240" y1="180" x2="430" y2="360"/>
    <line x1="520" y1="120" x2="760" y2="230"/>
    <line x1="430" y1="360" x2="760" y2="230"/>
    <line x1="430" y1="360" x2="640" y2="500"/>
    <line x1="760" y1="230" x2="980" y2="170"/>
    <line x1="760" y1="230" x2="900" y2="430"/>
    <line x1="640" y1="500" x2="900" y2="430"/>
    <line x1="240" y1="180" x2="200" y2="430"/>
    <line x1="200" y1="430" x2="430" y2="360"/>
  </g>
  <g>
    <circle cx="240" cy="180" r="34" fill="none" stroke="#23a06f" stroke-width="4"/>
    <circle cx="520" cy="120" r="26" fill="none" stroke="#7fc7a4" stroke-width="4"/>
    <circle cx="430" cy="360" r="44" fill="#0e5741"/>
    <circle cx="760" cy="230" r="34" fill="none" stroke="#23a06f" stroke-width="4"/>
    <circle cx="980" cy="170" r="24" fill="none" stroke="#7fc7a4" stroke-width="4"/>
    <circle cx="640" cy="500" r="28" fill="#23a06f"/>
    <circle cx="900" cy="430" r="38" fill="none" stroke="#0e5741" stroke-width="4"/>
    <circle cx="200" cy="430" r="22" fill="none" stroke="#7fc7a4" stroke-width="4"/>
  </g>
  <path d="M418 348l10 10 20-22" stroke="#fdfdfb" stroke-width="6" fill="none" stroke-linecap="round" stroke-linejoin="round"/>
</svg>
